[Header]
FileType HTR
DataType HTRS
FileVersion 1
NumSegments 64
NumFrames 4
DataFrameRate 30
EulerRotationOrder ZYX
CalibrationUnits mm
RotationUnits Degrees
GlobalAxisofGravity Y
BoneLengthAxis Y
ScaleFactor 1.0
[SegmentNames&Hierarchy]
Hips	GLOBAL
Spine	Hips
Spine1	Spine
Spine2	Spine1
Neck	Spine2
Head	Neck
LeftEye	Head
RightEye	Head
LeftShoulder	Spine2
LeftArm	LeftShoulder
LeftForeArm	LeftArm
LeftHand	LeftForeArm
LeftHandThumb1	LeftHand
LeftHandThumb2	LeftHandThumb1
LeftHandThumb3	LeftHandThumb2
LeftHandThumb4	LeftHandThumb3
LeftHandIndex1	LeftHand
LeftHandIndex2	LeftHandIndex1
LeftHandIndex3	LeftHandIndex2
LeftHandIndex4	LeftHandIndex3
LeftHandMiddle1	LeftHand
LeftHandMiddle2	LeftHandMiddle1
LeftHandMiddle3	LeftHandMiddle2
LeftHandMiddle4	LeftHandMiddle3
LeftHandRing1	LeftHand
LeftHandRing2	LeftHandRing1
LeftHandRing3	LeftHandRing2
LeftHandRing4	LeftHandRing3
LeftHandPinky1	LeftHand
LeftHandPinky2	LeftHandPinky1
LeftHandPinky3	LeftHandPinky2
LeftHandPinky4	LeftHandPinky3
RightShoulder	Spine2
RightArm	RightShoulder
RightForeArm	RightArm
RightHand	RightForeArm
RightHandPinky1	RightHand
RightHandPinky2	RightHandPinky1
RightHandPinky3	RightHandPinky2
RightHandPinky4	RightHandPinky3
RightHandRing1	RightHand
RightHandRing2	RightHandRing1
RightHandRing3	RightHandRing2
RightHandRing4	RightHandRing3
RightHandMiddle1	RightHand
RightHandMiddle2	RightHandMiddle1
RightHandMiddle3	RightHandMiddle2
RightHandMiddle4	RightHandMiddle3
RightHandIndex1	RightHand
RightHandIndex2	RightHandIndex1
RightHandIndex3	RightHandIndex2
RightHandIndex4	RightHandIndex3
RightHandThumb1	RightHand
RightHandThumb2	RightHandThumb1
RightHandThumb3	RightHandThumb2
RightHandThumb4	RightHandThumb3
LeftUpLeg	Hips
LeftLeg	LeftUpLeg
LeftFoot	LeftLeg
LeftToeBase	LeftFoot
RightUpLeg	Hips
RightLeg	RightUpLeg
RightFoot	RightLeg
RightToeBase	RightFoot
[BasePosition]
Hips	0	0	0	0	0	0	1
Spine	0	0	0	0	0	0	1
Spine1	0	0	0	0	0	0	1
Spine2	0	0	0	0	0	0	1
Neck	0	0	0	0	0	0	1
Head	0	0	0	0	0	0	1
LeftEye	0	0	0	0	0	0	1
RightEye	0	0	0	0	0	0	1
LeftShoulder	0	0	0	0	0	0	1
LeftArm	0	0	0	0	0	0	1
LeftForeArm	0	0	0	0	0	0	1
LeftHand	0	0	0	0	0	0	1
LeftHandThumb1	0	0	0	0	0	0	1
LeftHandThumb2	0	0	0	0	0	0	1
LeftHandThumb3	0	0	0	0	0	0	1
LeftHandThumb4	0	0	0	0	0	0	1
LeftHandIndex1	0	0	0	0	0	0	1
LeftHandIndex2	0	0	0	0	0	0	1
LeftHandIndex3	0	0	0	0	0	0	1
LeftHandIndex4	0	0	0	0	0	0	1
LeftHandMiddle1	0	0	0	0	0	0	1
LeftHandMiddle2	0	0	0	0	0	0	1
LeftHandMiddle3	0	0	0	0	0	0	1
LeftHandMiddle4	0	0	0	0	0	0	1
LeftHandRing1	0	0	0	0	0	0	1
LeftHandRing2	0	0	0	0	0	0	1
LeftHandRing3	0	0	0	0	0	0	1
LeftHandRing4	0	0	0	0	0	0	1
LeftHandPinky1	0	0	0	0	0	0	1
LeftHandPinky2	0	0	0	0	0	0	1
LeftHandPinky3	0	0	0	0	0	0	1
LeftHandPinky4	0	0	0	0	0	0	1
RightShoulder	0	0	0	0	0	0	1
RightArm	0	0	0	0	0	0	1
RightForeArm	0	0	0	0	0	0	1
RightHand	0	0	0	0	0	0	1
RightHandPinky1	0	0	0	0	0	0	1
RightHandPinky2	0	0	0	0	0	0	1
RightHandPinky3	0	0	0	0	0	0	1
RightHandPinky4	0	0	0	0	0	0	1
RightHandRing1	0	0	0	0	0	0	1
RightHandRing2	0	0	0	0	0	0	1
RightHandRing3	0	0	0	0	0	0	1
RightHandRing4	0	0	0	0	0	0	1
RightHandMiddle1	0	0	0	0	0	0	1
RightHandMiddle2	0	0	0	0	0	0	1
RightHandMiddle3	0	0	0	0	0	0	1
RightHandMiddle4	0	0	0	0	0	0	1
RightHandIndex1	0	0	0	0	0	0	1
RightHandIndex2	0	0	0	0	0	0	1
RightHandIndex3	0	0	0	0	0	0	1
RightHandIndex4	0	0	0	0	0	0	1
RightHandThumb1	0	0	0	0	0	0	1
RightHandThumb2	0	0	0	0	0	0	1
RightHandThumb3	0	0	0	0	0	0	1
RightHandThumb4	0	0	0	0	0	0	1
LeftUpLeg	0	0	0	0	0	0	1
LeftLeg	0	0	0	0	0	0	1
LeftFoot	0	0	0	0	0	0	1
LeftToeBase	0	0	0	0	0	0	1
RightUpLeg	0	0	0	0	0	0	1
RightLeg	0	0	0	0	0	0	1
RightFoot	0	0	0	0	0	0	1
RightToeBase	0	0	0	0	0	0	1
[Hips]
42	35.9965744	899.3942871	46.41007233	3.721912622	16.66091537	-10.88942814	1.0
43	25.73625374	869.2554932	32.7645607	5.482516766	18.47975922	-11.13547993	1.0
44	19.21323395	861.048584	18.09148026	6.929682732	18.05709648	-10.42849255	1.0
45	14.04095078	869.6643677	4.757860184	7.660439491	17.02795029	-9.427251816	1.0
[Spine]
42	0	101.8159943	1.315000057	7.111143589	4.169481277	2.675582647	1.0
43	0	101.8159943	1.315000057	7.435643196	4.800693989	2.405459642	1.0
44	0	101.8159943	1.315000057	7.62660408	5.583963871	2.089795589	1.0
45	0	101.8159943	1.315000057	7.603191853	5.862443924	1.864531517	1.0
[Spine1]
42	0	100.8349991	-10.00800037	2.843088388	2.41361022	1.211804748	1.0
43	0	100.8349991	-10.00800037	2.887490273	2.434909582	1.112547159	1.0
44	0	100.8349991	-10.00800037	2.87595439	2.465141773	1.02708602	1.0
45	0	100.8349991	-10.00800037	2.82860136	2.28512311	0.998093009	1.0
[Spine2]
42	0	91	-13.73399925	2.830629826	2.418757677	1.163392901	1.0
43	0	91	-13.73399925	2.858751059	2.45877099	1.072526336	1.0
44	0	91	-13.73399925	2.837889433	2.49976778	0.9972608089	1.0
45	0	91	-13.73399925	2.790574074	2.319284916	0.9832407832	1.0
[Neck]
42	0	166.7169952	-25.16200066	9.449619293	-4.12066412	0.177593112	1.0
43	0	166.7169952	-25.16200066	7.365641117	-4.447517395	-0.5744864345	1.0
44	0	166.7169952	-25.16200066	6.305435181	-4.490932941	-1.309793472	1.0
45	0	166.7169952	-25.16200066	5.804181576	-4.190401077	-1.807142973	1.0
[Head]
42	0	96.17900085	16.84999847	-21.36159325	-17.68883133	21.52594757	1.0
43	0	96.17900085	16.84999847	-23.48936272	-19.3357048	22.33691597	1.0
44	0	96.17900085	16.84999847	-23.32943153	-20.15965271	21.18348312	1.0
45	0	96.17900085	16.84999847	-21.67953873	-19.95663261	19.22574997	1.0
[LeftEye]
42	30.6760006	64.09500122	92.83599854	0	0	0	1.0
43	30.6760006	64.09500122	92.83599854	0	0	0	1.0
44	30.6760006	64.09500122	92.83599854	0	0	0	1.0
45	30.6760006	64.09500122	92.83599854	0	0	0	1.0
[RightEye]
42	-30.6760006	64.09500122	92.83499908	0	0	0	1.0
43	-30.6760006	64.09500122	92.83499908	0	0	0	1.0
44	-30.6760006	64.09500122	92.83499908	0	0	0	1.0
45	-30.6760006	64.09500122	92.83499908	0	0	0	1.0
[LeftShoulder]
42	45.70400238	109.4599991	-26.28000069	3.108050823	-0.600681901	2.645854473	1.0
43	45.70400238	109.4599991	-26.28000069	3.487921476	-5.652331829	-4.971910477	1.0
44	45.70400238	109.4599991	-26.28000069	4.211541176	-10.00433064	-11.02051353	1.0
45	45.70400238	109.4599991	-26.28000069	4.970168591	-13.19796085	-14.89870644	1.0
[LeftArm]
42	105.923996	-5.24600029	-22.32099915	-10.3752327	10.52528477	-38.8925705	1.0
43	105.923996	-5.24600029	-22.32099915	-15.67073536	4.565113544	-44.74649048	1.0
44	105.923996	-5.24600029	-22.32099915	-13.97513294	-3.102452517	-48.29531479	1.0
45	105.923996	-5.24600029	-22.32099915	-6.261694908	-10.05600452	-51.2980423	1.0
[LeftForeArm]
42	278.414978	-0.0009999999311	0	6.405264139e-05	-88.457901	-0.0002449263702	1.0
43	278.414978	-0.0009999999311	0	1.892253204e-05	-73.67256927	-0.0002142462326	1.0
44	278.414978	-0.0009999999311	0	-2.107244882e-06	-56.1181488	-0.000206917699	1.0
45	278.414978	-0.0009999999311	0	1.578828233e-06	-39.41675949	-0.0002168461942	1.0
[LeftHand]
42	283.2879944	0	0	-35.88210297	-8.013999939	33.35474014	1.0
43	283.2879944	0	0	-44.17931366	1.126122355	30.67699623	1.0
44	283.2879944	0	0	-56.03251648	12.37284184	25.72753716	1.0
45	283.2879944	0	0	-67.5120697	20.61925507	17.99310875	1.0
[LeftHandThumb1]
42	24.6609993	-15.75	26.8239994	-0.4549838305	2.291113853	4.849487782	1.0
43	24.6609993	-15.75	26.8239994	-0.4447415471	2.31513238	4.856887341	1.0
44	24.6609993	-15.75	26.8239994	-0.4960070848	2.182530642	4.811779976	1.0
45	24.6609993	-15.75	26.8239994	-0.5076796412	2.153182983	4.802222252	1.0
[LeftHandThumb2]
42	32.29800034	-18.64699936	18.64699936	6.762861252	22.61294365	16.35091019	1.0
43	32.29800034	-18.64699936	18.64699936	6.253313541	23.00618362	17.24317551	1.0
44	32.29800034	-18.64699936	18.64699936	9.679488182	24.62486458	19.36575317	1.0
45	32.29800034	-18.64699936	18.64699936	15.63322353	27.83529854	21.85424423	1.0
[LeftHandThumb3]
42	26.52600098	-15.31499958	15.31499958	-11.73276806	12.91882992	8.686540604	1.0
43	26.52600098	-15.31499958	15.31499958	-11.6984024	13.34879398	8.733143806	1.0
44	26.52600098	-15.31499958	15.31499958	-12.28360939	10.78657913	8.501209259	1.0
45	26.52600098	-15.31499958	15.31499958	-12.86058903	7.667720795	8.341524124	1.0
[LeftHandThumb4]
42	19.54599953	-11.28499985	11.28499985	0	0	0	1.0
43	19.54599953	-11.28499985	11.28499985	0	0	0	1.0
44	19.54599953	-11.28499985	11.28499985	0	0	0	1.0
45	19.54599953	-11.28499985	11.28499985	0	0	0	1.0
[LeftHandIndex1]
42	91.09299469	-5.170999527	22.60099792	0.731151402	0.1104568094	-4.732393265	1.0
43	91.09299469	-5.170999527	22.60099792	0.6539465785	-0.3668237627	-3.285530806	1.0
44	91.09299469	-5.170999527	22.60099792	0.4695497751	-0.4767723382	-6.228540897	1.0
45	91.09299469	-5.170999527	22.60099792	0.3582583368	0.7120741606	-12.63259602	1.0
[LeftHandIndex2]
42	36.76399994	0	0	-0.2862887681	1.806544781	-18.00859261	1.0
43	36.76399994	0	0	-0.2732335627	1.765763879	-17.58849144	1.0
44	36.76399994	0	0	-0.2640651762	1.736787438	-17.29024696	1.0
45	36.76399994	0	0	-0.2629582286	1.733132124	-17.25270844	1.0
[LeftHandIndex3]
42	28.83100128	0	0	-0.06678954512	0.8810758591	-8.669984818	1.0
43	28.83100128	0	0	-0.06053692102	0.8387297988	-8.250254631	1.0
44	28.83100128	0	0	-0.05618859455	0.8086407781	-7.952237606	1.0
45	28.83100128	0	0	-0.05567581579	0.8048371673	-7.914696217	1.0
[LeftHandIndex4]
42	23.92700005	0	0	0	0	0	1.0
43	23.92700005	0	0	0	0	0	1.0
44	23.92700005	0	0	0	0	0	1.0
45	23.92700005	0	0	0	0	0	1.0
[LeftHandMiddle1]
42	95.33399963	0	0	-0.1976737678	0.2314592451	-5.76875639	1.0
43	95.33399963	0	0	-0.1606325358	0.7833355069	-5.059199333	1.0
44	95.33399963	0	0	-0.3157314658	1.690669417	-7.848342419	1.0
45	95.33399963	0	0	-0.6587450504	2.697435617	-13.65490532	1.0
[LeftHandMiddle2]
42	36.98199844	0	0	-0.2807931602	1.789607763	-17.8338356	1.0
43	36.98199844	0	0	-0.2646535933	1.738358974	-17.30660248	1.0
44	36.98199844	0	0	-0.251781106	1.696839571	-16.88015556	1.0
45	36.98199844	0	0	-0.2486280352	1.68637538	-16.77301598	1.0
[LeftHandMiddle3]
42	29.50900078	0	0	-0.3135273755	1.888302207	-18.85408401	1.0
43	29.50900078	0	0	-0.2962476015	1.836713314	-18.32025146	1.0
44	29.50900078	0	0	-0.2824952006	1.794952631	-17.88885689	1.0
45	29.50900078	0	0	-0.2791169584	1.784325361	-17.77942657	1.0
[LeftHandMiddle4]
42	28.3390007	0	0	0	0	0	1.0
43	28.3390007	0	0	0	0	0	1.0
44	28.3390007	0	0	0	0	0	1.0
45	28.3390007	0	0	0	0	0	1.0
[LeftHandRing1]
42	91.04499817	-0.4390000105	-18.65100098	-0.6870042682	2.783317327	-14.09033203	1.0
43	91.04499817	-0.4390000105	-18.65100098	-0.5970636606	2.411823034	-12.70216846	1.0
44	91.04499817	-0.4390000105	-18.65100098	-0.6838732362	2.58142066	-14.02087688	1.0
45	91.04499817	-0.4390000105	-18.65100098	-0.9848839641	3.006119251	-18.42969894	1.0
[LeftHandRing2]
42	31.54000092	0	0	-0.3960033357	2.114243507	-21.21455002	1.0
43	31.54000092	0	0	-0.3806618452	2.074292898	-20.79452515	1.0
44	31.54000092	0	0	-0.3785910308	2.068921328	-20.73801422	1.0
45	31.54000092	0	0	-0.3903990686	2.099818468	-21.06266975	1.0
[LeftHandRing3]
42	29.37700081	0	0	-0.2913143933	1.821871519	-18.16672325	1.0
43	29.37700081	0	0	-0.2781347632	1.781256437	-17.74776077	1.0
44	29.37700081	0	0	-0.2764026523	1.775902271	-17.69253349	1.0
45	29.37700081	0	0	-0.2865823805	1.807397485	-18.01730537	1.0
[LeftHandRing4]
42	26.47500038	0	0	0	0	0	1.0
43	26.47500038	0	0	0	0	0	1.0
44	26.47500038	0	0	0	0	0	1.0
45	26.47500038	0	0	0	0	0	1.0
[LeftHandPinky1]
42	80.77799988	-4.887000084	-38.06099701	-1.702406764	2.530604362	-26.08810616	1.0
43	80.77799988	-4.887000084	-38.06099701	-1.631590605	3.04744792	-25.62614822	1.0
44	80.77799988	-4.887000084	-38.06099701	-1.626359701	3.942534447	-25.84461784	1.0
45	80.77799988	-4.887000084	-38.06099701	-1.772378325	3.686682224	-27.33232498	1.0
[LeftHandPinky2]
42	36	0	0	-0.2866321206	1.807450175	-18.01786995	1.0
43	36	0	0	-0.2714810967	1.760400891	-17.53297615	1.0
44	36	0	0	-0.2709876001	1.758713603	-17.5159111	1.0
45	36	0	0	-0.2806234658	1.788983822	-17.82764053	1.0
[LeftHandPinky3]
42	21.14200211	0	0	-0.2588537633	1.719781518	-17.11577225	1.0
43	21.14200211	0	0	-0.2444511354	1.672601223	-16.63180923	1.0
44	21.14200211	0	0	-0.2440142781	1.67100215	-16.61556816	1.0
45	21.14200211	0	0	-0.2531868517	1.701384306	-16.92695045	1.0
[LeftHandPinky4]
42	19.75699997	0	0	0	0	0	1.0
43	19.75699997	0	0	0	0	0	1.0
44	19.75699997	0	0	0	0	0	1.0
45	19.75699997	0	0	0	0	0	1.0
[RightShoulder]
42	-45.70000076	109.4620056	-26.28000069	2.488029003	7.690740585	-1.870671511	1.0
43	-45.70000076	109.4620056	-26.28000069	3.432081461	8.620657921	5.372058392	1.0
44	-45.70000076	109.4620056	-26.28000069	4.128306866	11.45977592	10.20570755	1.0
45	-45.70000076	109.4620056	-26.28000069	4.694452763	14.50919342	12.85655308	1.0
[RightArm]
42	-105.9280014	-5.248000145	-22.32099915	-17.18075752	-14.69633293	37.91991425	1.0
43	-105.9280014	-5.248000145	-22.32099915	-14.72397518	-1.639862776	37.60024643	1.0
44	-105.9280014	-5.248000145	-22.32099915	-6.555670738	10.84310913	38.4406662	1.0
45	-105.9280014	-5.248000145	-22.32099915	4.205029011	20.7835865	41.25786972	1.0
[RightForeArm]
42	-278.414978	0	0	4.7335011e-06	40.85063553	1.106121999e-05	1.0
43	-278.414978	0	0	-2.426220362e-06	28.80319405	-1.29635946e-05	1.0
44	-278.414978	0	0	-2.85405531e-06	18.74839211	-1.685624738e-05	1.0
45	-278.414978	0	0	-1.347725288e-06	14.90228653	1.229703798e-06	1.0
[RightHand]
42	-283.2879944	0	0.0009999999311	-21.01155663	-32.12972641	-30.12132645	1.0
43	-283.2879944	0	0.0009999999311	-35.50640106	-30.75581169	-20.74383354	1.0
44	-283.2879944	0	0.0009999999311	-47.59741211	-20.63618851	-11.01023865	1.0
45	-283.2879944	0	0.0009999999311	-51.1659584	-6.673616409	-3.481445789	1.0
[RightHandPinky1]
42	-80.76699829	-4.885000229	-38.06000137	-2.283245087	-5.183745861	20.26689529	1.0
43	-80.76699829	-4.885000229	-38.06000137	-1.522809148	-5.552220345	18.43270683	1.0
44	-80.76699829	-4.885000229	-38.06000137	-1.193524122	-5.402504921	18.7978344	1.0
45	-80.76699829	-4.885000229	-38.06000137	-1.356200695	-4.58675766	21.22257996	1.0
[RightHandPinky2]
42	-36	0	0.0009999999311	-0.01168773044	-0.3262799978	4.051647663	1.0
43	-36	0	0.0009999999311	-0.007243858185	-0.2637165487	3.277155161	1.0
44	-36	0	0.0009999999311	-0.009892472066	-0.3040551841	3.776183605	1.0
45	-36	0	0.0009999999311	-0.02194490656	-0.44811517	5.561388493	1.0
[RightHandPinky3]
42	-21.14200211	0	0	-0.007016520947	-0.2516709566	3.108984947	1.0
43	-21.14200211	0	0	-0.003754384816	-0.1929591894	2.382921696	1.0
44	-21.14200211	0	0	-0.005864926148	-0.2348972708	2.901202917	1.0
45	-21.14200211	0	0	-0.01565948687	-0.3778606355	4.670685768	1.0
[RightHandPinky4]
42	-19.75699997	0	0	0	0	0	1.0
43	-19.75699997	0	0	0	0	0	1.0
44	-19.75699997	0	0	0	0	0	1.0
45	-19.75699997	0	0	0	0	0	1.0
[RightHandRing1]
42	-91.03599548	-0.4390000105	-18.65100098	-0.2387466133	-2.167373657	6.42466259	1.0
43	-91.03599548	-0.4390000105	-18.65100098	-0.145513311	-2.615477562	4.509168625	1.0
44	-91.03599548	-0.4390000105	-18.65100098	-0.1895079166	-2.531083345	5.416350365	1.0
45	-91.03599548	-0.4390000105	-18.65100098	-0.3460767269	-1.974999547	8.586107254	1.0
[RightHandRing2]
42	-31.54000092	0	0	-0.03255957365	-0.5452263951	6.74811697	1.0
43	-31.54000092	0	0	-0.02435139567	-0.4817297757	5.957502842	1.0
44	-31.54000092	0	0	-0.03643191606	-0.5769682527	7.142599583	1.0
45	-31.54000092	0	0	-0.07043202221	-0.8032125235	9.968733788	1.0
[RightHandRing3]
42	-29.37700081	0	0	-0.01016165596	-0.3005342782	3.71357131	1.0
43	-29.37700081	0	0	-0.005284267012	-0.235931918	2.913563251	1.0
44	-29.37700081	0	0	-0.01226787176	-0.3313393593	4.094401836	1.0
45	-29.37700081	0	0	-0.03421338648	-0.5592595339	6.922727108	1.0
[RightHandRing4]
42	-26.47500038	0	0	0	0	0	1.0
43	-26.47500038	0	0	0	0	0	1.0
44	-26.47500038	0	0	0	0	0	1.0
45	-26.47500038	0	0	0	0	0	1.0
[RightHandMiddle1]
42	-95.32500458	0	0	0.09685645998	-0.59311831	-1.261799932	1.0
43	-95.32500458	0	0	0.1522535682	-0.9602127671	-2.702981234	1.0
44	-95.32500458	0	0	0.1024062783	-1.118656993	-1.403462291	1.0
45	-95.32500458	0	0	-0.02768748626	-1.156161904	1.853802919	1.0
[RightHandMiddle2]
42	-36.98199844	0	0	-0.1141345724	-1.021299958	12.71597576	1.0
43	-36.98199844	0	0	-0.08420887589	-0.8796762228	10.92802048	1.0
44	-36.98199844	0	0	-0.08302117884	-0.8748463988	10.86660099	1.0
45	-36.98199844	0	0	-0.1142171174	-1.021257043	12.71570206	1.0
[RightHandMiddle3]
42	-29.50900078	0	0	-0.133303836	-1.10479188	13.74979687	1.0
43	-29.50900078	0	0	-0.1005461216	-0.962405622	11.94498253	1.0
44	-29.50900078	0	0	-0.099181436	-0.9571737051	11.8781414	1.0
45	-29.50900078	0	0	-0.1330198944	-1.103256226	13.73044968	1.0
[RightHandMiddle4]
42	-28.3390007	0	0.0009999999311	0	0	0	1.0
43	-28.3390007	0	0.0009999999311	0	0	0	1.0
44	-28.3390007	0	0.0009999999311	0	0	0	1.0
45	-28.3390007	0	0.0009999999311	0	0	0	1.0
[RightHandIndex1]
42	-91.08300018	-5.167999744	22.60099792	0.1908081472	10.34770966	0.2143477499	1.0
43	-91.08300018	-5.167999744	22.60099792	0.2737642229	8.529743195	-2.176011324	1.0
44	-91.08300018	-5.167999744	22.60099792	0.2580668032	6.998437881	-2.738563538	1.0
45	-91.08300018	-5.167999744	22.60099792	0.1763007194	5.852428436	-1.806654215	1.0
[RightHandIndex2]
42	-36.76399994	0	0	-0.01595009305	-0.3842745721	4.749957085	1.0
43	-36.76399994	0	0	-0.01538478397	-0.3814131021	4.714077473	1.0
44	-36.76399994	0	0	-0.02317546308	-0.4631958604	5.728221893	1.0
45	-36.76399994	0	0	-0.04533872753	-0.643971622	7.977719307	1.0
[RightHandIndex3]
42	-28.83100128	0	0	-0.00914855767	0.2907138169	-3.591680288	1.0
43	-28.83100128	0	0	-0.01039533503	0.314365238	-3.884152174	1.0
44	-28.83100128	0	0	-0.006672178395	0.2489383668	-3.075318813	1.0
45	-28.83100128	0	0	-0.00103327632	0.0763970539	-0.9434047937	1.0
[RightHandIndex4]
42	-23.92700005	0	0	0	0	0	1.0
43	-23.92700005	0	0	0	0	0	1.0
44	-23.92700005	0	0	0	0	0	1.0
45	-23.92700005	0	0	0	0	0	1.0
[RightHandThumb1]
42	-24.64799881	-15.72700024	26.82600021	-2.886497259	3.251064062	-3.131651878	1.0
43	-24.64799881	-15.72700024	26.82600021	-2.661471128	2.604218006	-3.322042227	1.0
44	-24.64799881	-15.72700024	26.82600021	-2.430594921	1.938974619	-3.522051811	1.0
45	-24.64799881	-15.72700024	26.82600021	-2.189391375	1.243000865	-3.735528231	1.0
[RightHandThumb2]
42	-32.29800034	-18.64699936	18.64699936	16.58798218	-3.354739428	-32.04108047	1.0
43	-32.29800034	-18.64699936	18.64699936	16.55724907	-2.675361156	-35.29260635	1.0
44	-32.29800034	-18.64699936	18.64699936	16.65149879	-2.894771338	-37.1378479	1.0
45	-32.29800034	-18.64699936	18.64699936	16.99991798	-4.484730244	-36.9720192	1.0
[RightHandThumb3]
42	-26.52600098	-15.31399918	15.31399918	-24.10938454	11.61923885	-32.99554825	1.0
43	-26.52600098	-15.31399918	15.31399918	-25.1537056	14.12449551	-32.62933731	1.0
44	-26.52600098	-15.31399918	15.31399918	-24.31399918	12.77851009	-30.33537865	1.0
45	-26.52600098	-15.31399918	15.31399918	-21.90192413	7.914000034	-27.2379818	1.0
[RightHandThumb4]
42	-19.54599953	-11.28499985	11.28499985	0	0	0	1.0
43	-19.54599953	-11.28499985	11.28499985	0	0	0	1.0
44	-19.54599953	-11.28499985	11.28499985	0	0	0	1.0
45	-19.54599953	-11.28499985	11.28499985	0	0	0	1.0
[LeftUpLeg]
42	82.07800293	-67.51699829	-15.99599934	-47.76815796	11.47960567	9.070848465	1.0
43	82.07800293	-67.51699829	-15.99599934	-54.93191528	12.73667145	9.22651577	1.0
44	82.07800293	-67.51699829	-15.99599934	-58.05699158	14.47416687	8.307676315	1.0
45	82.07800293	-67.51699829	-15.99599934	-57.83158875	15.20036697	7.200739861	1.0
[LeftLeg]
42	0	-443.7049866	2.845999956	63.61239624	-7.643290997	-5.673880577	1.0
43	0	-443.7049866	2.845999956	69.46524048	-5.936525345	-7.326067448	1.0
44	0	-443.7049866	2.845999956	70.28762054	-4.956159592	-8.366498947	1.0
45	0	-443.7049866	2.845999956	67.57872772	-5.030727386	-8.614794731	1.0
[LeftFoot]
42	0	-444.2789917	-29.8219986	-22.31619644	-3.771846056	1.028066635	1.0
43	0	-444.2789917	-29.8219986	-23.34880257	-5.95397377	2.948323965	1.0
44	0	-444.2789917	-29.8219986	-22.06251526	-6.690864563	4.017594337	1.0
45	0	-444.2789917	-29.8219986	-19.817976	-6.323885918	3.784196615	1.0
[LeftToeBase]
42	0	-87.28699493	107.1060028	-4.957112789	-0.005027834326	-0.03495322913	1.0
43	0	-87.28699493	107.1060028	-4.890504837	7.40897076e-06	1.416767532e-06	1.0
44	0	-87.28699493	107.1060028	-4.928526402	1.368950052e-06	1.138469202e-06	1.0
45	0	-87.28699493	107.1060028	-4.928523064	-3.136422947e-06	-2.72002687e-08	1.0
[RightUpLeg]
42	-82.07800293	-67.51699829	-15.99599934	-33.0494194	-12.04767799	8.122808456	1.0
43	-82.07800293	-67.51699829	-15.99599934	-36.51767731	-11.30078888	9.905227661	1.0
44	-82.07800293	-67.51699829	-15.99599934	-39.7446022	-11.39948368	9.986236572	1.0
45	-82.07800293	-67.51699829	-15.99599934	-40.73921585	-12.19435501	9.284912109	1.0
[RightLeg]
42	0	-443.7049866	2.861999989	62.60770416	-7.302657127	-8.761258125	1.0
43	0	-443.7049866	2.861999989	64.72982025	-6.716855526	-8.369260788	1.0
44	0	-443.7049866	2.861999989	66.42510986	-6.227104187	-7.881221771	1.0
45	0	-443.7049866	2.861999989	65.41449738	-6.668474197	-7.601014137	1.0
[RightFoot]
42	0	-444.2770081	-29.83799934	-24.13649368	-12.40176964	16.64637375	1.0
43	0	-444.2770081	-29.83799934	-34.90104675	-14.49722195	18.17879677	1.0
44	0	-444.2770081	-29.83799934	-37.18975067	-14.93392181	17.94102859	1.0
45	0	-444.2770081	-29.83799934	-34.81817245	-14.37833786	15.94527912	1.0
[RightToeBase]
42	0	-87.28699493	107.1060028	-13.61746216	8.830731531e-06	9.588986813e-07	1.0
43	0	-87.28699493	107.1060028	-9.813396454	1.623229218e-05	-2.783344826e-06	1.0
44	0	-87.28699493	107.1060028	-7.400510788	1.054834138e-05	-3.100694357e-06	1.0
45	0	-87.28699493	107.1060028	-7.234838009	-1.46998218e-07	1.959337851e-06	1.0
[EndOfFile]
